<svg xmlns="http://www.w3.org/2000/svg" xmlns:xlink="http://www.w3.org/1999/xlink" width="500" zoomAndPan="magnify" viewBox="0 0 375 374.999991" height="500" preserveAspectRatio="xMidYMid meet" version="1.0"><defs><clipPath id="45ac110ff7"><path d="M 39.828125 21 L 335.328125 21 L 335.328125 354 L 39.828125 354 Z M 39.828125 21 " clip-rule="nonzero"/></clipPath><clipPath id="d1636660ff"><path d="M 39.828125 21 L 294 21 L 294 295 L 39.828125 295 Z M 39.828125 21 " clip-rule="nonzero"/></clipPath></defs><g clip-path="url(#45ac110ff7)"><path fill="#233dff" d="M 335.152344 118.996094 C 335.144531 113.410156 333.953125 108.472656 331.542969 104.238281 C 329.167969 100.070312 325.613281 96.578125 320.859375 93.816406 C 281.542969 71.125 242.179688 48.503906 202.875 25.785156 C 192.285156 19.664062 182.007812 19.886719 171.484375 26.097656 C 155.839844 35.335938 77.488281 80.269531 54.136719 93.804688 C 44.527344 99.378906 39.847656 107.902344 39.84375 118.988281 C 39.828125 164.621094 39.84375 210.261719 39.828125 255.902344 C 39.832031 261.359375 40.976562 266.207031 43.28125 270.382812 C 45.65625 274.671875 49.253906 278.261719 54.128906 281.074219 C 77.476562 294.621094 155.839844 339.542969 171.488281 348.785156 C 182.011719 355.003906 192.289062 355.222656 202.890625 349.09375 C 242.1875 326.378906 281.546875 303.757812 320.875 281.066406 C 325.746094 278.238281 329.34375 274.648438 331.722656 270.371094 C 334.015625 266.195312 335.171875 261.347656 335.171875 255.878906 C 335.171875 255.878906 335.171875 164.636719 335.160156 119 " fill-opacity="1" fill-rule="nonzero"/></g><g clip-path="url(#d1636660ff)"><path fill="#050a30" d="M 202.609375 26.085938 C 192.03125 19.976562 181.777344 20.199219 171.277344 26.394531 C 155.65625 35.609375 77.425781 80.425781 54.113281 93.925781 C 44.519531 99.484375 39.847656 107.988281 39.84375 119.042969 C 39.828125 164.566406 39.84375 210.078125 39.828125 255.601562 C 39.832031 261.046875 40.972656 265.867188 43.277344 270.035156 C 45.644531 274.3125 49.238281 277.902344 54.105469 280.714844 C 59.445312 283.808594 67.671875 288.550781 77.363281 294.121094 L 293.199219 78.273438 C 263.007812 60.886719 232.792969 43.511719 202.613281 26.085938 " fill-opacity="1" fill-rule="nonzero"/></g><path fill="#f4f6fc" d="M 218.023438 166.640625 L 263.984375 166.964844 C 263.984375 147.8125 244.59375 100.917969 189.019531 100.917969 C 153.617188 100.917969 106.015625 123.429688 106.015625 188.144531 C 106.015625 252.867188 152.679688 273.964844 189.019531 273.964844 C 247.878906 273.964844 261.941406 233.242188 261.941406 210.226562 L 218.09375 207.722656 C 218.09375 207.722656 219.269531 234.339844 188.789062 234.339844 C 160.652344 234.339844 155.957031 199.867188 155.957031 188.144531 C 155.957031 170.320312 162.289062 141.722656 188.789062 141.722656 C 215.289062 141.722656 218.023438 166.640625 218.023438 166.640625 " fill-opacity="1" fill-rule="nonzero"/></svg>