<svg xmlns="http://www.w3.org/2000/svg" xmlns:xlink="http://www.w3.org/1999/xlink" width="500" zoomAndPan="magnify" viewBox="0 0 375 374.999991" height="500" preserveAspectRatio="xMidYMid meet" version="1.0"><defs><g/><clipPath id="39f9e2bf8c"><path d="M 129.925781 89 L 245.425781 89 L 245.425781 219.488281 L 129.925781 219.488281 Z M 129.925781 89 " clip-rule="nonzero"/></clipPath><clipPath id="d0538b1b9a"><path d="M 129.925781 89 L 229 89 L 229 196 L 129.925781 196 Z M 129.925781 89 " clip-rule="nonzero"/></clipPath></defs><g clip-path="url(#39f9e2bf8c)"><path fill="#233dff" d="M 245.070312 127.707031 C 245.0625 125.53125 244.601562 123.605469 243.660156 121.953125 C 242.734375 120.328125 241.347656 118.96875 239.496094 117.890625 C 224.167969 109.042969 208.820312 100.222656 193.496094 91.367188 C 189.367188 88.980469 185.359375 89.066406 181.253906 91.488281 C 175.15625 95.089844 144.609375 112.609375 135.503906 117.886719 C 131.757812 120.058594 129.929688 123.382812 129.929688 127.703125 C 129.925781 145.496094 129.929688 163.289062 129.925781 181.085938 C 129.925781 183.214844 130.371094 185.101562 131.269531 186.730469 C 132.195312 188.402344 133.601562 189.804688 135.5 190.898438 C 144.601562 196.179688 175.15625 213.695312 181.257812 217.300781 C 185.359375 219.722656 189.367188 219.808594 193.5 217.421875 C 208.820312 208.5625 224.167969 199.742188 239.503906 190.894531 C 241.398438 189.792969 242.804688 188.394531 243.730469 186.726562 C 244.625 185.097656 245.074219 183.207031 245.074219 181.078125 C 245.074219 181.078125 245.074219 145.503906 245.070312 127.707031 " fill-opacity="1" fill-rule="nonzero"/></g><g clip-path="url(#d0538b1b9a)"><path fill="#050a30" d="M 193.390625 91.480469 C 189.265625 89.101562 185.269531 89.1875 181.175781 91.601562 C 175.085938 95.195312 144.582031 112.667969 135.492188 117.933594 C 131.753906 120.097656 129.929688 123.414062 129.929688 127.726562 C 129.925781 145.472656 129.929688 163.21875 129.925781 180.96875 C 129.925781 183.089844 130.371094 184.972656 131.269531 186.59375 C 132.191406 188.261719 133.59375 189.664062 135.492188 190.761719 C 137.574219 191.964844 140.78125 193.8125 144.558594 195.988281 L 228.710938 111.828125 C 216.941406 105.050781 205.160156 98.277344 193.394531 91.480469 " fill-opacity="1" fill-rule="nonzero"/></g><path fill="#f4f6fc" d="M 199.402344 146.285156 L 217.320312 146.410156 C 217.320312 138.941406 209.757812 120.660156 188.09375 120.660156 C 174.289062 120.660156 155.730469 129.433594 155.730469 154.667969 C 155.730469 179.902344 173.921875 188.128906 188.09375 188.128906 C 211.042969 188.128906 216.523438 172.25 216.523438 163.277344 L 199.425781 162.300781 C 199.425781 162.300781 199.886719 172.675781 188.003906 172.675781 C 177.03125 172.675781 175.203125 159.238281 175.203125 154.667969 C 175.203125 147.71875 177.671875 136.566406 188.003906 136.566406 C 198.335938 136.566406 199.402344 146.285156 199.402344 146.285156 " fill-opacity="1" fill-rule="nonzero"/><g fill="#050a30" fill-opacity="1"><g transform="translate(97.40601, 263.903625)"><g><path d="M 9.609375 -16.359375 C 9.609375 -22.59375 14.109375 -25.703125 18.609375 -25.703125 C 22.359375 -25.703125 26.171875 -23.546875 27.25 -19.171875 L 35.359375 -19.171875 C 34.328125 -27.625 27.0625 -33.34375 18.609375 -33.34375 C 9.234375 -33.34375 1.640625 -26.03125 1.640625 -16.359375 C 1.640625 -6.703125 9.234375 0.46875 18.609375 0.46875 C 27.15625 0.46875 34.1875 -5.203125 35.40625 -13.78125 L 27.296875 -13.78125 C 26.265625 -9.328125 22.453125 -7.078125 18.609375 -7.078125 C 14.109375 -7.078125 9.609375 -10.171875 9.609375 -16.359375 Z M 9.609375 -16.359375 "/></g></g></g><g fill="#050a30" fill-opacity="1"><g transform="translate(132.899198, 263.903625)"><g><path d="M 8.578125 -22.828125 L 8.578125 -33.0625 L 1.125 -33.0625 L 1.125 0 L 8.953125 0 L 8.953125 -13.78125 C 8.953125 -16.828125 11.625 -18.75 13.828125 -18.75 C 15.84375 -18.75 17.71875 -17.296875 17.71875 -13.921875 L 17.71875 0 L 25.1875 0 L 25.1875 -13.96875 C 25.28125 -20.296875 23.25 -25.65625 16.03125 -25.75 C 13.3125 -25.75 10.40625 -25.09375 8.578125 -22.828125 Z M 8.578125 -22.828125 "/></g></g></g><g fill="#050a30" fill-opacity="1"><g transform="translate(159.952757, 263.903625)"><g><path d="M 1.03125 -30.953125 C 1.03125 -28.1875 3.28125 -26.828125 5.53125 -26.828125 C 7.6875 -26.828125 9.890625 -28.1875 9.890625 -30.953125 C 9.890625 -33.859375 7.640625 -35.265625 5.390625 -35.265625 C 3.234375 -35.265625 1.03125 -33.8125 1.03125 -30.953125 Z M 1.734375 -25.375 L 9.234375 -25.375 L 9.234375 0 L 1.734375 0 Z M 1.734375 -25.375 "/></g></g></g><g fill="#050a30" fill-opacity="1"><g transform="translate(171.11169, 263.903625)"><g><path d="M 8.34375 -23.6875 L 8.0625 -25.375 L 1.40625 -25.375 L 1.40625 0 L 8.765625 0 L 8.765625 -14.0625 C 8.765625 -17.484375 11.484375 -18.890625 14.15625 -18.9375 C 15 -18.9375 15.890625 -18.796875 16.640625 -18.5625 L 16.734375 -25.515625 C 15.75 -25.75 14.765625 -25.890625 13.875 -25.890625 C 11.8125 -25.890625 9.984375 -25.234375 8.34375 -23.6875 Z M 8.34375 -23.6875 "/></g></g></g><g fill="#050a30" fill-opacity="1"><g transform="translate(188.928555, 263.903625)"><g><path d="M 12.9375 -25.796875 C 4.6875 -25.796875 0.65625 -19.96875 0.65625 -13.03125 C 0.65625 -6.046875 4.828125 0.328125 12.84375 0.328125 C 15.28125 0.328125 17.765625 -0.375 19.5 -2.53125 L 19.5 0 L 26.875 0 L 26.875 -25.375 L 19.5 -25.375 L 19.5 -22.734375 C 17.859375 -24.859375 15.421875 -25.796875 12.9375 -25.796875 Z M 13.734375 -6.75 C 9.984375 -6.75 8.0625 -9.796875 8.0625 -12.84375 C 8.0625 -15.9375 9.9375 -18.984375 13.734375 -18.984375 C 16.921875 -18.984375 19.5 -16.21875 19.5 -12.84375 C 19.5 -9.46875 16.921875 -6.75 13.734375 -6.75 Z M 13.734375 -6.75 "/></g></g></g><g fill="#050a30" fill-opacity="1"><g transform="translate(217.67004, 263.903625)"><g><path d="M 8.53125 -22.828125 L 8.53125 -25.375 L 1.078125 -25.375 L 1.078125 0 L 8.90625 0 L 8.90625 -13.78125 C 8.90625 -17.015625 11.53125 -18.890625 13.734375 -18.890625 C 15.75 -18.890625 17.671875 -17.34375 17.671875 -13.921875 L 17.671875 0 L 25.1875 0 L 25.1875 -13.96875 C 25.234375 -20.296875 23.25 -25.65625 16.03125 -25.75 C 13.3125 -25.75 10.3125 -25.09375 8.53125 -22.828125 Z M 8.53125 -22.828125 "/></g></g></g><g fill="#050a30" fill-opacity="1"><g transform="translate(244.723596, 263.903625)"><g/></g></g><g fill="#050a30" fill-opacity="1"><g transform="translate(255.085454, 263.903625)"><g><path d="M 20.0625 -14.4375 L 20.0625 -33.0625 L 4.171875 -33.0625 L 4.171875 -25.703125 L 12.09375 -25.703125 L 12.09375 -14.4375 C 12.09375 -9.375 9.515625 -7.5 0.84375 -7.5 L 0.84375 0 C 14.8125 0 20.0625 -3.984375 20.0625 -14.4375 Z M 20.0625 -14.4375 "/></g></g></g><g fill="#3a9bdc" fill-opacity="1"><g transform="translate(158.048418, 282.865672)"><g><path d="M 0.90625 -6.03125 L 3.453125 -6.03125 C 4.085938 -6.03125 4.648438 -5.90625 5.140625 -5.65625 C 5.640625 -5.40625 6.023438 -5.050781 6.296875 -4.59375 C 6.566406 -4.132812 6.703125 -3.609375 6.703125 -3.015625 C 6.703125 -2.421875 6.566406 -1.894531 6.296875 -1.4375 C 6.023438 -0.988281 5.640625 -0.632812 5.140625 -0.375 C 4.648438 -0.125 4.085938 0 3.453125 0 L 0.90625 0 Z M 3.390625 -0.75 C 3.878906 -0.75 4.3125 -0.84375 4.6875 -1.03125 C 5.0625 -1.21875 5.347656 -1.484375 5.546875 -1.828125 C 5.742188 -2.171875 5.84375 -2.566406 5.84375 -3.015625 C 5.84375 -3.460938 5.742188 -3.859375 5.546875 -4.203125 C 5.347656 -4.546875 5.0625 -4.8125 4.6875 -5 C 4.3125 -5.1875 3.878906 -5.28125 3.390625 -5.28125 L 1.765625 -5.28125 L 1.765625 -0.75 Z M 3.390625 -0.75 "/></g></g></g><g fill="#3a9bdc" fill-opacity="1"><g transform="translate(165.59912, 282.865672)"><g><path d="M 5.28125 -0.75 L 5.28125 0 L 0.90625 0 L 0.90625 -6.03125 L 5.171875 -6.03125 L 5.171875 -5.28125 L 1.765625 -5.28125 L 1.765625 -3.4375 L 4.796875 -3.4375 L 4.796875 -2.703125 L 1.765625 -2.703125 L 1.765625 -0.75 Z M 5.28125 -0.75 "/></g></g></g><g fill="#3a9bdc" fill-opacity="1"><g transform="translate(171.805245, 282.865672)"><g><path d="M 6.15625 -6.03125 L 3.5 0 L 2.640625 0 L -0.015625 -6.03125 L 0.921875 -6.03125 L 3.09375 -1.078125 L 5.28125 -6.03125 Z M 6.15625 -6.03125 "/></g></g></g><g fill="#3a9bdc" fill-opacity="1"><g transform="translate(178.373374, 282.865672)"><g><path d="M 5.28125 -0.75 L 5.28125 0 L 0.90625 0 L 0.90625 -6.03125 L 5.171875 -6.03125 L 5.171875 -5.28125 L 1.765625 -5.28125 L 1.765625 -3.4375 L 4.796875 -3.4375 L 4.796875 -2.703125 L 1.765625 -2.703125 L 1.765625 -0.75 Z M 5.28125 -0.75 "/></g></g></g><g fill="#3a9bdc" fill-opacity="1"><g transform="translate(184.579501, 282.865672)"><g><path d="M 0.90625 -6.03125 L 1.765625 -6.03125 L 1.765625 -0.75 L 5.03125 -0.75 L 5.03125 0 L 0.90625 0 Z M 0.90625 -6.03125 "/></g></g></g><g fill="#3a9bdc" fill-opacity="1"><g transform="translate(190.130576, 282.865672)"><g><path d="M 3.625 0.0625 C 3.019531 0.0625 2.472656 -0.0664062 1.984375 -0.328125 C 1.492188 -0.597656 1.109375 -0.96875 0.828125 -1.4375 C 0.546875 -1.90625 0.40625 -2.429688 0.40625 -3.015625 C 0.40625 -3.597656 0.546875 -4.125 0.828125 -4.59375 C 1.109375 -5.0625 1.492188 -5.429688 1.984375 -5.703125 C 2.472656 -5.972656 3.019531 -6.109375 3.625 -6.109375 C 4.226562 -6.109375 4.773438 -5.972656 5.265625 -5.703125 C 5.753906 -5.429688 6.132812 -5.0625 6.40625 -4.59375 C 6.6875 -4.132812 6.828125 -3.609375 6.828125 -3.015625 C 6.828125 -2.429688 6.6875 -1.90625 6.40625 -1.4375 C 6.132812 -0.96875 5.753906 -0.597656 5.265625 -0.328125 C 4.773438 -0.0664062 4.226562 0.0625 3.625 0.0625 Z M 3.625 -0.703125 C 4.070312 -0.703125 4.472656 -0.800781 4.828125 -1 C 5.179688 -1.195312 5.457031 -1.472656 5.65625 -1.828125 C 5.863281 -2.179688 5.96875 -2.578125 5.96875 -3.015625 C 5.96875 -3.453125 5.863281 -3.847656 5.65625 -4.203125 C 5.457031 -4.554688 5.179688 -4.832031 4.828125 -5.03125 C 4.472656 -5.238281 4.070312 -5.34375 3.625 -5.34375 C 3.1875 -5.34375 2.785156 -5.238281 2.421875 -5.03125 C 2.066406 -4.832031 1.785156 -4.554688 1.578125 -4.203125 C 1.378906 -3.847656 1.28125 -3.453125 1.28125 -3.015625 C 1.28125 -2.578125 1.378906 -2.179688 1.578125 -1.828125 C 1.785156 -1.472656 2.066406 -1.195312 2.421875 -1 C 2.785156 -0.800781 3.1875 -0.703125 3.625 -0.703125 Z M 3.625 -0.703125 "/></g></g></g><g fill="#3a9bdc" fill-opacity="1"><g transform="translate(197.80195, 282.865672)"><g><path d="M 3.265625 -6.03125 C 4.046875 -6.03125 4.660156 -5.84375 5.109375 -5.46875 C 5.554688 -5.101562 5.78125 -4.59375 5.78125 -3.9375 C 5.78125 -3.28125 5.554688 -2.765625 5.109375 -2.390625 C 4.660156 -2.015625 4.046875 -1.828125 3.265625 -1.828125 L 1.765625 -1.828125 L 1.765625 0 L 0.90625 0 L 0.90625 -6.03125 Z M 3.234375 -2.578125 C 3.773438 -2.578125 4.191406 -2.691406 4.484375 -2.921875 C 4.773438 -3.160156 4.921875 -3.5 4.921875 -3.9375 C 4.921875 -4.375 4.773438 -4.707031 4.484375 -4.9375 C 4.191406 -5.164062 3.773438 -5.28125 3.234375 -5.28125 L 1.765625 -5.28125 L 1.765625 -2.578125 Z M 3.234375 -2.578125 "/></g></g></g><g fill="#3a9bdc" fill-opacity="1"><g transform="translate(204.456268, 282.865672)"><g><path d="M 5.28125 -0.75 L 5.28125 0 L 0.90625 0 L 0.90625 -6.03125 L 5.171875 -6.03125 L 5.171875 -5.28125 L 1.765625 -5.28125 L 1.765625 -3.4375 L 4.796875 -3.4375 L 4.796875 -2.703125 L 1.765625 -2.703125 L 1.765625 -0.75 Z M 5.28125 -0.75 "/></g></g></g><g fill="#3a9bdc" fill-opacity="1"><g transform="translate(210.662392, 282.865672)"><g><path d="M 4.9375 0 L 3.640625 -1.859375 C 3.472656 -1.847656 3.347656 -1.84375 3.265625 -1.84375 L 1.765625 -1.84375 L 1.765625 0 L 0.90625 0 L 0.90625 -6.03125 L 3.265625 -6.03125 C 4.046875 -6.03125 4.660156 -5.84375 5.109375 -5.46875 C 5.554688 -5.101562 5.78125 -4.59375 5.78125 -3.9375 C 5.78125 -3.46875 5.664062 -3.066406 5.4375 -2.734375 C 5.207031 -2.410156 4.878906 -2.175781 4.453125 -2.03125 L 5.875 0 Z M 3.234375 -2.5625 C 3.773438 -2.5625 4.191406 -2.679688 4.484375 -2.921875 C 4.773438 -3.160156 4.921875 -3.5 4.921875 -3.9375 C 4.921875 -4.375 4.773438 -4.707031 4.484375 -4.9375 C 4.191406 -5.164062 3.773438 -5.28125 3.234375 -5.28125 L 1.765625 -5.28125 L 1.765625 -2.5625 Z M 3.234375 -2.5625 "/></g></g></g></svg>